# xmcd
#
# Track frame offsets: 
#        150
#        15312
#        30072
#        44088
#        58825
#        75559
#        87604
#        104975
#        123745
#        141362
#
# Disc length: 2010 seconds
#
# Revision: 0
# Processed by: cddbd v1.5.2PL0 Copyright (c) Steve Scherf et al.
# Submitted via: ExactAudioCopy v1.1
#
DISCID=8a07d80a
DTITLE=Gene Chandler - The Two Sides of Gene Chandler
DYEAR=1969
DGENRE=Soul
TTITLE0=Can I Change My Mind?
TTITLE1=Familiar Footsteps
TTITLE2=This Guy's in Love with You
TTITLE3=If You Would Love Me
TTITLE4=Suicide
TTITLE5=Eleanor Rigby
TTITLE6=Yesterdays
TTITLE7=The Sun Died
TTITLE8=Honey
TTITLE9=This Bitter Earth
EXTD=
EXTT0=
EXTT1=
EXTT2=
EXTT3=
EXTT4=
EXTT5=
EXTT6=
EXTT7=
EXTT8=
EXTT9=
PLAYORDER=
